<?xml version="1.0" encoding="UTF-8"?>
<svg width="305px" height="303px" viewBox="0 0 305 303" version="1.1" xmlns="http://www.w3.org/2000/svg" xmlns:xlink="http://www.w3.org/1999/xlink">
    <!-- Generator: sketchtool 52.4 (67378) - http://www.bohemiancoding.com/sketch -->
    <title>EB748F05-A593-4BF6-BBBB-A77B4D2C51B8</title>
    <desc>Created with sketchtool.</desc>
    <defs>
        <polygon id="path-1" points="0 302.334395 304.882175 302.334395 304.882175 0.000817119987 0 0.000817119987"></polygon>
    </defs>
    <g id="Page-1" stroke="none" stroke-width="1" fill="none" fill-rule="evenodd">
        <g id="Feature-main-page-Copy-4" transform="translate(-918.000000, -130.000000)">
            <g id="Group-14" transform="translate(918.000000, 129.000000)">
                <g id="Group-118" transform="translate(0.000000, 0.462121)">
                    <path d="M107.148372,296.245709 L107.148372,42.5103425" id="Stroke-1" stroke="#BBE5FF" stroke-width="0.998" stroke-linecap="round"></path>
                    <path d="M43.8000827,230.170691 L43.8000827,94.4217301" id="Stroke-2" stroke="#BBE5FF" stroke-width="0.998" stroke-linecap="round"></path>
                    <path d="M121.379334,262.339969 L121.379334,60.9403203" id="Stroke-3" stroke="#BBE5FF" stroke-width="0.998" stroke-linecap="round"></path>
                    <path d="M181.90766,262.339969 L181.90766,63.0983342" id="Stroke-4" stroke="#BBE5FF" stroke-width="0.998" stroke-linecap="round"></path>
                    <path d="M240.781809,300.967274 L240.781809,67.819245" id="Stroke-5" stroke="#BBE5FF" stroke-width="0.998" stroke-linecap="round"></path>
                    <g id="Group-117" transform="translate(0.000000, 0.816303)">
                        <path d="M45.9577697,54.4781249 C45.9577697,55.6694859 44.9911168,56.6361388 43.7997558,56.6361388 C42.6075778,56.6361388 41.642559,55.6694859 41.642559,54.4781249 C41.642559,53.286764 42.6075778,52.3201111 43.7997558,52.3201111 C44.9911168,52.3201111 45.9577697,53.286764 45.9577697,54.4781249 Z" id="Stroke-6" stroke="#BBE5FF" stroke-width="0.998" stroke-linecap="round"></path>
                        <path d="M109.306141,2.56624703 C109.306141,3.75760797 108.340305,4.72426092 107.148127,4.72426092 C105.956766,4.72426092 104.991747,3.75760797 104.991747,2.56624703 C104.991747,1.37488609 105.956766,0.408233145 107.148127,0.408233145 C108.340305,0.408233145 109.306141,1.37488609 109.306141,2.56624703 Z" id="Stroke-8" stroke="#BBE5FF" stroke-width="0.998" stroke-linecap="round"></path>
                        <path d="M123.536285,20.9969603 C123.536285,22.1883213 122.570449,23.1549742 121.379088,23.1549742 C120.18691,23.1549742 119.221892,22.1883213 119.221892,20.9969603 C119.221892,19.8055994 120.18691,18.8389464 121.379088,18.8389464 C122.570449,18.8389464 123.536285,19.8055994 123.536285,20.9969603 Z" id="Stroke-10" stroke="#BBE5FF" stroke-width="0.998" stroke-linecap="round"></path>
                        <path d="M242.939578,27.4696946 C242.939578,28.6610555 241.972925,29.6277085 240.781564,29.6277085 C239.589386,29.6277085 238.624367,28.6610555 238.624367,27.4696946 C238.624367,26.2783336 239.589386,25.3124978 240.781564,25.3124978 C241.972925,25.3124978 242.939578,26.2783336 242.939578,27.4696946 Z" id="Stroke-12" stroke="#BBE5FF" stroke-width="0.998" stroke-linecap="round"></path>
                        <path d="M268.579087,133.363297 L268.579087,45.6037933" id="Stroke-14" stroke="#BBE5FF" stroke-width="0.998" stroke-linecap="round"></path>
                        <path d="M270.736774,43.1146824 C270.736774,44.3060434 269.770121,45.2726963 268.57876,45.2726963 C267.387399,45.2726963 266.421563,44.3060434 266.421563,43.1146824 C266.421563,41.9233215 267.387399,40.9566685 268.57876,40.9566685 C269.770121,40.9566685 270.736774,41.9233215 270.736774,43.1146824 Z" id="Stroke-16" stroke="#BBE5FF" stroke-width="0.998" stroke-linecap="round"></path>
                        <path d="M302.317154,224.471032 L302.317154,102.635173" id="Stroke-18" stroke="#BBE5FF" stroke-width="0.998" stroke-linecap="round"></path>
                        <path d="M304.474923,100.146634 C304.474923,101.337995 303.50827,102.303831 302.316909,102.303831 C301.124731,102.303831 300.159712,101.337995 300.159712,100.146634 C300.159712,98.9552732 301.124731,97.9886203 302.316909,97.9886203 C303.50827,97.9886203 304.474923,98.9552732 304.474923,100.146634 Z" id="Stroke-20" stroke="#BBE5FF" stroke-width="0.998" stroke-linecap="round"></path>
                        <path d="M12.5986828,218.68574 L12.5986828,96.850699" id="Stroke-22" stroke="#BBE5FF" stroke-width="0.998" stroke-linecap="round"></path>
                        <path d="M14.7563698,94.3618332 C14.7563698,95.5531942 13.790534,96.5198471 12.598356,96.5198471 C11.406995,96.5198471 10.4411592,95.5531942 10.4411592,94.3618332 C10.4411592,93.1704723 11.406995,92.2038193 12.598356,92.2038193 C13.790534,92.2038193 14.7563698,93.1704723 14.7563698,94.3618332 Z" id="Stroke-24" stroke="#BBE5FF" stroke-width="0.998" stroke-linecap="round"></path>
                        <path d="M184.065429,23.1546474 C184.065429,24.3460083 183.099593,25.3126612 181.907415,25.3126612 C180.716054,25.3126612 179.751035,24.3460083 179.751035,23.1546474 C179.751035,21.9632864 180.716054,20.9966335 181.907415,20.9966335 C183.099593,20.9966335 184.065429,21.9632864 184.065429,23.1546474 Z" id="Stroke-26" stroke="#BBE5FF" stroke-width="0.998" stroke-linecap="round"></path>
                        <path d="M214.460004,167.994803 C189.65551,170.451883 168.979923,149.776296 171.437003,124.970984 C173.255095,106.616835 188.101348,91.7705823 206.456314,89.9533075 C231.260808,87.4970448 251.933944,108.170998 249.477681,132.975492 C247.661224,151.329641 232.814971,166.175894 214.460004,167.994803 Z M289.4373,141.411439 L289.4373,116.536672 C289.4373,114.293678 287.696017,112.435547 285.457926,112.289282 L274.433343,111.5694 C272.942916,106.07917 270.763657,100.87575 267.996072,96.0498397 L275.28805,87.7389123 C276.767855,86.0523766 276.684509,83.507865 275.098479,81.9218351 L257.509971,64.3325103 C255.923941,62.7464804 253.378612,62.6639513 251.692077,64.1429384 L243.381149,71.4357343 C238.555239,68.6673318 233.352636,66.4880728 227.861589,64.9984631 L227.142524,53.9738802 C226.996259,51.7357885 225.137311,49.9945059 222.894317,49.9945059 L198.020367,49.9945059 C195.777373,49.9945059 193.918425,51.7357885 193.772978,53.9738802 L193.053095,64.9984631 C187.562049,66.4880728 182.359446,68.6673318 177.534352,71.4357343 L169.222608,64.1429384 C167.536072,62.6639513 164.990743,62.7464804 163.40553,64.3325103 L145.816206,81.9218351 C144.230176,83.507865 144.14683,86.0523766 145.626634,87.7389123 L152.91943,96.0498397 C150.151844,100.87575 147.971768,106.07917 146.482158,111.5694 L135.456758,112.289282 C133.218667,112.435547 131.478201,114.293678 131.478201,116.536672 L131.478201,141.411439 C131.478201,143.654433 133.218667,145.512564 135.456758,145.658828 L146.482158,146.378711 C147.971768,151.86894 150.151844,157.07236 152.91943,161.897454 L145.626634,170.209198 C144.14683,171.894917 144.230176,174.440246 145.816206,176.026276 L163.40553,193.614783 C164.990743,195.20163 167.536072,195.284159 169.222608,193.805172 L177.534352,186.512376 C182.359446,189.279962 187.562049,191.460038 193.053095,192.949648 L193.772978,203.97423 C193.918425,206.212322 195.777373,207.952788 198.020367,207.952788 L222.894317,207.952788 C225.137311,207.952788 226.996259,206.212322 227.142524,203.97423 L227.861589,192.949648 C233.352636,191.460038 238.555239,189.279962 243.381149,186.512376 L251.692077,193.805172 C253.378612,195.284159 255.923941,195.20163 257.509971,193.614783 L275.098479,176.026276 C276.684509,174.440246 276.767855,171.894917 275.28805,170.209198 L267.996072,161.897454 C270.763657,157.07236 272.942916,151.86894 274.433343,146.378711 L285.457926,145.658828 C287.696017,145.512564 289.4373,143.654433 289.4373,141.411439 Z" id="Stroke-28" stroke="#FF8D00" stroke-width="0.998"></path>
                        <path d="M77.2516675,190.621182 C60.311136,192.299547 46.1896683,178.178079 47.8680328,161.237548 C49.1100552,148.70211 59.2496971,138.562468 71.7859519,137.321263 C88.7256664,135.643715 102.8455,149.763549 101.16877,166.703263 C99.9267472,179.239518 89.7879224,189.37916 77.2516675,190.621182 Z M128.458126,172.465593 L128.458126,155.476852 C128.458126,153.944752 127.270033,152.675765 125.741202,152.576076 L118.211441,152.08417 C117.194127,148.334406 115.706151,144.780751 113.815336,141.485306 L118.795682,135.808774 C119.805642,134.657452 119.749261,132.91862 118.666577,131.835936 L106.653279,119.823455 C105.569778,118.739954 103.831764,118.682756 102.680442,119.693533 L97.003909,124.67388 C93.7084641,122.783881 90.1548092,121.295089 86.4050456,120.277774 L85.9139565,112.748831 C85.8134508,111.219999 84.5444634,110.03109 83.0123634,110.03109 L66.0244389,110.03109 C64.4923389,110.03109 63.2225345,111.219999 63.1228458,112.748013 L62.6309396,120.277774 C58.8819931,121.295089 55.3283383,122.783881 52.0320763,124.67388 L46.3555437,119.693533 C45.2034045,118.682756 43.4653903,118.739954 42.3827063,119.823455 L30.3702254,131.835936 C29.2867243,132.91862 29.2295259,134.657452 30.2403033,135.808774 L35.2206496,141.485306 C33.3306511,144.780751 31.8426756,148.334406 30.8245441,152.08417 L23.2956006,152.576076 C21.7667691,152.675765 20.5778595,153.944752 20.5778595,155.476852 L20.5778595,172.465593 C20.5778595,173.996876 21.7667691,175.266681 23.2956006,175.366369 L30.8245441,175.858276 C31.8426756,179.607222 33.3306511,183.160877 35.2206496,186.457139 L30.2403033,192.133672 C29.2295259,193.285811 29.2867243,195.023825 30.3702254,196.106509 L42.3827063,208.11899 C43.4653903,209.202491 45.2034045,209.259689 46.3555437,208.248912 L52.0320763,203.268566 C55.3283383,205.158564 58.8819931,206.64654 62.6309396,207.664671 L63.1228458,215.193615 C63.2225345,216.722446 64.4923389,217.911356 66.0244389,217.911356 L83.0123634,217.911356 C84.5444634,217.911356 85.8134508,216.722446 85.9139565,215.193615 L86.4050456,207.664671 C90.1548092,206.64654 93.7084641,205.158564 97.003909,203.268566 L102.680442,208.248912 C103.831764,209.259689 105.569778,209.202491 106.653279,208.11899 L118.666577,196.106509 C119.749261,195.023825 119.805642,193.285811 118.795682,192.133672 L113.815336,186.457139 C115.706151,183.160877 117.194127,179.607222 118.211441,175.858276 L125.741202,175.366369 C127.270033,175.266681 128.458126,173.996876 128.458126,172.465593 Z" id="Stroke-30" stroke="#FF8D00" stroke-width="0.998"></path>
                        <polygon id="Fill-32" fill="#D7E8F2" points="294.702985 302.334395 12.5988462 302.334395 67.5330058 259.547541 239.768825 259.547541"></polygon>
                        <mask id="mask-2" fill="white">
                            <use xlink:href="#path-1"></use>
                        </mask>
                        <g id="Clip-35"></g>
                        <polygon id="Fill-34" fill="#3887FF" mask="url(#mask-2)" points="67.5333327 233.440558 239.768335 233.440558 239.768335 133.36297 67.5333327 133.36297"></polygon>
                        <polygon id="Fill-36" fill="#FFFFFF" mask="url(#mask-2)" points="72.6100992 230.490755 234.692386 230.490755 234.692386 136.312773 72.6100992 136.312773"></polygon>
                        <path d="M118.96311,156.796827 L82.6118929,156.796827 C81.8683137,156.796827 81.2595594,156.188073 81.2595594,155.445311 C81.2595594,154.701732 81.8683137,154.092977 82.6118929,154.092977 L118.96311,154.092977 C119.706689,154.092977 120.314626,154.701732 120.314626,155.445311 C120.314626,156.188073 119.706689,156.796827 118.96311,156.796827" id="Fill-37" fill="#66E29E" mask="url(#mask-2)"></path>
                        <path d="M161.727084,156.796827 L125.375867,156.796827 C124.633105,156.796827 124.023534,156.188073 124.023534,155.445311 C124.023534,154.701732 124.633105,154.092977 125.375867,154.092977 L161.727084,154.092977 C162.470663,154.092977 163.078601,154.701732 163.078601,155.445311 C163.078601,156.188073 162.470663,156.796827 161.727084,156.796827" id="Fill-38" fill="#66E29E" mask="url(#mask-2)"></path>
                        <path d="M178.928114,156.796827 L168.955981,156.796827 C168.212402,156.796827 167.604465,156.188073 167.604465,155.445311 C167.604465,154.701732 168.212402,154.092977 168.955981,154.092977 L178.928114,154.092977 C179.671693,154.092977 180.27963,154.701732 180.27963,155.445311 C180.27963,156.188073 179.671693,156.796827 178.928114,156.796827" id="Fill-39" fill="#80AEFF" mask="url(#mask-2)"></path>
                        <path d="M130.635015,182.374971 L82.6120564,182.374971 C81.8676601,182.374971 81.2597228,181.767034 81.2597228,181.023455 C81.2597228,180.280692 81.8676601,179.671938 82.6120564,179.671938 L130.635015,179.671938 C131.377777,179.671938 131.985714,180.280692 131.985714,181.023455 C131.985714,181.767034 131.377777,182.374971 130.635015,182.374971" id="Fill-40" fill="#66E29E" mask="url(#mask-2)"></path>
                        <path d="M166.622614,182.374971 L137.983375,182.374971 C137.239796,182.374971 136.631859,181.767034 136.631859,181.023455 C136.631859,180.280692 137.239796,179.671938 137.983375,179.671938 L166.622614,179.671938 C167.365376,179.671938 167.97413,180.280692 167.97413,181.023455 C167.97413,181.767034 167.365376,182.374971 166.622614,182.374971" id="Fill-41" fill="#80AEFF" mask="url(#mask-2)"></path>
                        <path d="M100.176541,165.322331 L82.6117295,165.322331 C81.8681503,165.322331 81.2602131,164.714393 81.2602131,163.971631 C81.2602131,163.228052 81.8681503,162.619298 82.6117295,162.619298 L100.176541,162.619298 C100.919303,162.619298 101.52724,163.228052 101.52724,163.971631 C101.52724,164.714393 100.919303,165.322331 100.176541,165.322331" id="Fill-42" fill="#80AEFF" mask="url(#mask-2)"></path>
                        <path d="M136.164139,165.322331 L105.10786,165.322331 C104.365098,165.322331 103.756343,164.714393 103.756343,163.971631 C103.756343,163.228052 104.365098,162.619298 105.10786,162.619298 L136.164139,162.619298 C136.907718,162.619298 137.515656,163.228052 137.515656,163.971631 C137.515656,164.714393 136.907718,165.322331 136.164139,165.322331" id="Fill-43" fill="#66E29E" mask="url(#mask-2)"></path>
                        <path d="M114.634172,148.270589 L82.6120564,148.270589 C81.8676601,148.270589 81.2597228,147.662652 81.2597228,146.919072 C81.2597228,146.175493 81.8676601,145.567556 82.6120564,145.567556 L114.634172,145.567556 C115.376934,145.567556 115.985688,146.175493 115.985688,146.919072 C115.985688,147.662652 115.376934,148.270589 114.634172,148.270589" id="Fill-44" fill="#66E29E" mask="url(#mask-2)"></path>
                        <path d="M195.992602,148.270589 L121.368302,148.270589 C120.624723,148.270589 120.016786,147.662652 120.016786,146.919072 C120.016786,146.175493 120.624723,145.567556 121.368302,145.567556 L195.992602,145.567556 C196.736182,145.567556 197.344119,146.175493 197.344119,146.919072 C197.344119,147.662652 196.736182,148.270589 195.992602,148.270589" id="Fill-45" fill="#80AEFF" mask="url(#mask-2)"></path>
                        <path d="M178.928114,173.848651 L163.003262,173.848651 C162.259683,173.848651 161.650929,173.240713 161.650929,172.497134 C161.650929,171.754372 162.259683,171.145618 163.003262,171.145618 L178.928114,171.145618 C179.671693,171.145618 180.27963,171.754372 180.27963,172.497134 C180.27963,173.240713 179.671693,173.848651 178.928114,173.848651" id="Fill-46" fill="#80AEFF" mask="url(#mask-2)"></path>
                        <path d="M157.236928,173.848651 L82.6118112,173.848651 C81.868232,173.848651 81.2602948,173.240713 81.2602948,172.497134 C81.2602948,171.754372 81.868232,171.145618 82.6118112,171.145618 L157.236928,171.145618 C157.97969,171.145618 158.587628,171.754372 158.587628,172.497134 C158.587628,173.240713 157.97969,173.848651 157.236928,173.848651" id="Fill-47" fill="#66E29E" mask="url(#mask-2)"></path>
                        <polygon id="Fill-59" fill="#3887FF" mask="url(#mask-2)" points="294.702985 276.227248 12.5988462 276.227248 67.5330058 233.441211 239.768825 233.441211"></polygon>
                        <path d="M55.1272451,236.107801 L62.7068501,230.396132" id="Stroke-60" stroke="#8AB7CE" stroke-width="0.998" stroke-linecap="round" mask="url(#mask-2)"></path>
                        <path d="M27.8734336,256.64031 L52.3829476,238.175033" id="Stroke-61" stroke="#8AB7CE" stroke-width="0.998" stroke-linecap="round" mask="url(#mask-2)"></path>
                        <path d="M41.6415785,285.494043 L5.86969971,285.494043 C0.636863318,285.494043 -1.58978865,278.837783 2.58978009,275.688603 L10.4406689,269.773471" id="Stroke-62" stroke="#8AB7CE" stroke-width="0.998" stroke-linecap="round" mask="url(#mask-2)"></path>
                        <path d="M192.674687,285.494043 L67.5335778,285.494043" id="Stroke-63" stroke="#8AB7CE" stroke-width="0.998" stroke-linecap="round" mask="url(#mask-2)"></path>
                        <path d="M275.767945,285.494043 L215.324762,285.494043" id="Stroke-64" stroke="#8AB7CE" stroke-width="0.998" stroke-linecap="round" mask="url(#mask-2)"></path>
                        <path d="M273.607071,253.073418 L284.429008,261.227458" id="Stroke-65" stroke="#8AB7CE" stroke-width="0.998" stroke-linecap="round" mask="url(#mask-2)"></path>
                        <path d="M250.758027,235.859641 L271.462213,251.457645" id="Stroke-66" stroke="#8AB7CE" stroke-width="0.998" stroke-linecap="round" mask="url(#mask-2)"></path>
                        <polygon id="Fill-67" fill="#EFEFEF" mask="url(#mask-2)" points="85.1117081 237.44992 75.7352563 237.44992 79.1565376 234.764047 88.1219781 234.764047"></polygon>
                        <polygon id="Fill-68" fill="#EFEFEF" mask="url(#mask-2)" points="79.7565489 242.442033 69.3766737 242.442033 73.3650363 239.310829 83.2530053 239.310829"></polygon>
                        <polygon id="Fill-69" fill="#EFEFEF" mask="url(#mask-2)" points="95.5730502 242.442033 85.193175 242.442033 88.4330557 239.310829 98.3218418 239.310829"></polygon>
                        <polygon id="Fill-70" fill="#EFEFEF" mask="url(#mask-2)" points="111.390369 242.442033 101.010493 242.442033 103.501892 239.310829 113.389861 239.310829"></polygon>
                        <polygon id="Fill-71" fill="#EFEFEF" mask="url(#mask-2)" points="127.206952 242.442033 116.827076 242.442033 118.569993 239.310829 128.457962 239.310829"></polygon>
                        <polygon id="Fill-72" fill="#EFEFEF" mask="url(#mask-2)" points="143.02427 242.442033 132.644395 242.442033 133.63883 239.310829 143.526799 239.310829"></polygon>
                        <polygon id="Fill-73" fill="#EFEFEF" mask="url(#mask-2)" points="158.840853 242.442033 148.460978 242.442033 148.706931 239.310829 158.5949 239.310829"></polygon>
                        <polygon id="Fill-74" fill="#EFEFEF" mask="url(#mask-2)" points="174.658172 242.442033 164.278296 242.442033 163.775768 239.310829 173.663737 239.310829"></polygon>
                        <polygon id="Fill-75" fill="#EFEFEF" mask="url(#mask-2)" points="190.474673 242.442033 180.094798 242.442033 178.843787 239.310829 188.731756 239.310829"></polygon>
                        <polygon id="Fill-76" fill="#EFEFEF" mask="url(#mask-2)" points="206.291991 242.442033 195.912116 242.442033 193.912623 239.310829 203.800592 239.310829"></polygon>
                        <polygon id="Fill-77" fill="#EFEFEF" mask="url(#mask-2)" points="222.108574 242.442033 211.728699 242.442033 208.980725 239.310829 218.868694 239.310829"></polygon>
                        <polygon id="Fill-78" fill="#EFEFEF" mask="url(#mask-2)" points="237.925893 242.442033 227.546018 242.442033 224.048744 239.310829 233.93753 239.310829"></polygon>
                        <polygon id="Fill-79" fill="#EFEFEF" mask="url(#mask-2)" points="73.9089931 247.677566 62.7070952 247.677566 67.3344457 244.045468 77.9659938 244.045468"></polygon>
                        <polygon id="Fill-80" fill="#EFEFEF" mask="url(#mask-2)" points="90.9775674 247.677566 79.7764866 247.677566 83.5352385 244.045468 94.1659695 244.045468"></polygon>
                        <polygon id="Fill-81" fill="#EFEFEF" mask="url(#mask-2)" points="108.046142 247.677566 96.8450609 247.677566 99.7352142 244.045468 110.366762 244.045468"></polygon>
                        <polygon id="Fill-82" fill="#EFEFEF" mask="url(#mask-2)" points="125.114634 247.677566 113.913553 247.677566 115.935108 244.045468 126.565839 244.045468"></polygon>
                        <polygon id="Fill-83" fill="#EFEFEF" mask="url(#mask-2)" points="142.183208 247.677566 130.982128 247.677566 132.135084 244.045468 142.766632 244.045468"></polygon>
                        <polygon id="Fill-84" fill="#EFEFEF" mask="url(#mask-2)" points="159.251783 247.677566 148.050702 247.677566 148.335877 244.045468 158.966608 244.045468"></polygon>
                        <polygon id="Fill-85" fill="#EFEFEF" mask="url(#mask-2)" points="176.320357 247.677566 165.119276 247.677566 164.535853 244.045468 175.167401 244.045468"></polygon>
                        <polygon id="Fill-86" fill="#EFEFEF" mask="url(#mask-2)" points="193.38885 247.677566 182.187769 247.677566 180.735747 244.045468 191.366478 244.045468"></polygon>
                        <polygon id="Fill-87" fill="#EFEFEF" mask="url(#mask-2)" points="210.457424 247.677566 199.256343 247.677566 196.935722 244.045468 207.56727 244.045468"></polygon>
                        <polygon id="Fill-88" fill="#EFEFEF" mask="url(#mask-2)" points="227.525998 247.677566 216.324917 247.677566 213.136515 244.045468 223.767246 244.045468"></polygon>
                        <polygon id="Fill-89" fill="#EFEFEF" mask="url(#mask-2)" points="244.594491 247.677566 233.39341 247.677566 229.336409 244.045468 239.96714 244.045468"></polygon>
                        <polygon id="Fill-90" fill="#EFEFEF" mask="url(#mask-2)" points="66.694559 254.136246 54.4802494 254.136246 59.9574047 249.836561 71.4967732 249.836561"></polygon>
                        <polygon id="Fill-91" fill="#EFEFEF" mask="url(#mask-2)" points="85.3071632 254.136246 73.0928536 254.136246 77.542072 249.836561 89.0814404 249.836561"></polygon>
                        <polygon id="Fill-92" fill="#EFEFEF" mask="url(#mask-2)" points="196.693283 254.136246 91.7056213 254.136246 95.1260855 249.836561 194.316281 249.836561"></polygon>
                        <polygon id="Fill-93" fill="#EFEFEF" mask="url(#mask-2)" points="215.596373 254.136246 203.382064 254.136246 200.634906 249.836561 212.175092 249.836561"></polygon>
                        <polygon id="Fill-94" fill="#EFEFEF" mask="url(#mask-2)" points="234.209794 254.136246 221.994668 254.136246 218.220391 249.836561 229.760576 249.836561"></polygon>
                        <polygon id="Fill-95" fill="#EFEFEF" mask="url(#mask-2)" points="252.822399 254.136246 240.608089 254.136246 235.805058 249.836561 247.345243 249.836561"></polygon>
                        <polygon id="Fill-96" fill="#EFEFEF" mask="url(#mask-2)" points="104.088176 237.44992 94.711724 237.44992 97.299543 234.764047 106.264983 234.764047"></polygon>
                        <polygon id="Fill-97" fill="#EFEFEF" mask="url(#mask-2)" points="117.483714 237.44992 108.106445 237.44992 110.107572 234.764047 119.071378 234.764047"></polygon>
                        <polygon id="Fill-98" fill="#EFEFEF" mask="url(#mask-2)" points="130.879171 237.44992 121.501902 237.44992 122.913885 234.764047 131.879325 234.764047"></polygon>
                        <polygon id="Fill-99" fill="#EFEFEF" mask="url(#mask-2)" points="144.274709 237.44992 134.89744 237.44992 135.721097 234.764047 144.686537 234.764047"></polygon>
                        <polygon id="Fill-100" fill="#EFEFEF" mask="url(#mask-2)" points="157.66943 237.44992 148.292978 237.44992 148.527491 234.764047 157.492932 234.764047"></polygon>
                        <polygon id="Fill-101" fill="#EFEFEF" mask="url(#mask-2)" points="171.064886 237.44992 161.687617 237.44992 161.335439 234.764047 170.300062 234.764047"></polygon>
                        <polygon id="Fill-102" fill="#EFEFEF" mask="url(#mask-2)" points="184.90649 237.44992 175.530039 237.44992 174.569923 234.764047 183.533729 234.764047"></polygon>
                        <polygon id="Fill-103" fill="#EFEFEF" mask="url(#mask-2)" points="206.115657 237.44992 196.739205 237.44992 194.847572 234.764047 203.812196 234.764047"></polygon>
                        <polygon id="Fill-104" fill="#EFEFEF" mask="url(#mask-2)" points="218.841647 237.44992 209.464378 237.44992 207.013835 234.764047 215.978458 234.764047"></polygon>
                        <polygon id="Fill-105" fill="#EFEFEF" mask="url(#mask-2)" points="231.566902 237.44992 222.189633 237.44992 219.180997 234.764047 228.14562 234.764047"></polygon>
                        <polygon id="Fill-106" fill="#EFEFEF" mask="url(#mask-2)" points="185.811369 270.426023 121.490952 270.426023 126.566084 258.459301 180.73542 258.459301"></polygon>
                        <path d="M290.523171,280.940887 L16.7781698,280.940887 C14.4698059,280.940887 12.5986011,279.069682 12.5986011,276.761318 L12.5986011,276.226921 L294.70274,276.226921 L294.70274,276.761318 C294.70274,279.069682 292.831535,280.940887 290.523171,280.940887" id="Fill-107" fill="#96C1EA" mask="url(#mask-2)"></path>
                        <path d="M277.925714,224.459837 C277.925714,225.652015 276.959061,226.617851 275.7677,226.617851 C274.576339,226.617851 273.610503,225.652015 273.610503,224.459837 C273.610503,223.268476 274.576339,222.301823 275.7677,222.301823 C276.959061,222.301823 277.925714,223.268476 277.925714,224.459837 Z" id="Stroke-108" stroke="#96C1EA" stroke-width="1.331" mask="url(#mask-2)"></path>
                        <path d="M246.752259,84.4454285 C246.752259,85.6367894 245.785606,86.6034424 244.594246,86.6034424 C243.402885,86.6034424 242.437049,85.6367894 242.437049,84.4454285 C242.437049,83.2540675 243.402885,82.2882317 244.594246,82.2882317 C245.785606,82.2882317 246.752259,83.2540675 246.752259,84.4454285 Z" id="Stroke-109" stroke="#96C1EA" stroke-width="1.331" mask="url(#mask-2)"></path>
                        <path d="M263.547916,136.997683 C263.547916,137.769862 262.921185,138.395776 262.149006,138.395776 C261.376828,138.395776 260.750097,137.769862 260.750097,136.997683 C260.750097,136.225505 261.376828,135.598774 262.149006,135.598774 C262.921185,135.598774 263.547916,136.225505 263.547916,136.997683" id="Fill-110" fill="#F78C57" mask="url(#mask-2)"></path>
                        <path d="M49.7672648,217.911683 C49.7672648,218.683861 49.1405338,219.310592 48.3683554,219.310592 C47.596177,219.310592 46.969446,218.683861 46.969446,217.911683 C46.969446,217.139504 47.596177,216.512773 48.3683554,216.512773 C49.1405338,216.512773 49.7672648,217.139504 49.7672648,217.911683" id="Fill-111" fill="#F78C57" mask="url(#mask-2)"></path>
                        <path d="M67.2077104,84.4454285 C67.2077104,85.218424 66.5817965,85.8443379 65.8096181,85.8443379 C65.0374397,85.8443379 64.4107086,85.218424 64.4107086,84.4454285 C64.4107086,83.6732501 65.0374397,83.0473362 65.8096181,83.0473362 C66.5817965,83.0473362 67.2077104,83.6732501 67.2077104,84.4454285" id="Fill-112" fill="#F78C57" mask="url(#mask-2)"></path>
                        <path d="M254.221226,229.321047 C254.221226,230.093226 253.594495,230.71914 252.822317,230.71914 C252.050139,230.71914 251.423408,230.093226 251.423408,229.321047 C251.423408,228.548052 252.050139,227.922138 252.822317,227.922138 C253.594495,227.922138 254.221226,228.548052 254.221226,229.321047" id="Fill-113" fill="#F78C57" mask="url(#mask-2)"></path>
                        <path d="M103.685254,107.872994 C103.685254,109.064355 102.719418,110.031008 101.52724,110.031008 C100.335879,110.031008 99.3700433,109.064355 99.3700433,107.872994 C99.3700433,106.681633 100.335879,105.71498 101.52724,105.71498 C102.719418,105.71498 103.685254,106.681633 103.685254,107.872994 Z" id="Stroke-114" stroke="#96C1EA" stroke-width="1.331" mask="url(#mask-2)"></path>
                        <path d="M27.8734336,223.653912 C27.8734336,224.845273 26.9067806,225.811926 25.7154197,225.811926 C24.5240587,225.811926 23.5582229,224.845273 23.5582229,223.653912 C23.5582229,222.462551 24.5240587,221.495898 25.7154197,221.495898 C26.9067806,221.495898 27.8734336,222.462551 27.8734336,223.653912 Z" id="Stroke-115" stroke="#96C1EA" stroke-width="1.331" mask="url(#mask-2)"></path>
                        <path d="M52.6838112,84.4454285 C52.6838112,85.6367894 51.7179753,86.6034424 50.5257973,86.6034424 C49.3344363,86.6034424 48.3686005,85.6367894 48.3686005,84.4454285 C48.3686005,83.2540675 49.3344363,82.2882317 50.5257973,82.2882317 C51.7179753,82.2882317 52.6838112,83.2540675 52.6838112,84.4454285 Z" id="Stroke-116" stroke="#96C1EA" stroke-width="1.331" mask="url(#mask-2)"></path>
                    </g>
                </g>
                <g id="Group" transform="translate(187.621212, 183.000000)">
                    <path d="M19.4846663,23.5969978 C19.4647604,23.5778705 19.4470663,23.5553275 19.434533,23.529369 C19.4242114,23.5088754 18.3824706,21.4683989 17.8804001,20.69989 C17.4734356,20.0782516 17.7764472,19.4689095 18.1605569,18.6976681 C18.3566667,18.3028253 18.5785803,17.8553823 18.7525724,17.3225495 C18.8697959,16.9618626 18.8358822,16.7753711 18.7710038,16.7234541 C18.6213411,16.6059576 18.1118981,16.7350671 17.8155217,16.8696415 C17.6857649,16.9283898 17.5302042,16.8792052 17.4668003,16.7589763 C17.4033964,16.6394304 17.4564787,16.4939261 17.5862355,16.4351778 C17.7580159,16.3573023 18.6405097,15.9863686 19.1086664,16.3545698 C19.3703918,16.5601886 19.4234742,16.9365872 19.2524311,17.4619057 C19.0681174,18.0268452 18.8373567,18.490683 18.6346117,18.8998713 C18.259349,19.6540347 18.0757726,20.0652724 18.3264392,20.4485022 C18.8432547,21.2388709 19.8636152,23.2383603 19.906376,23.3230671 C19.9683054,23.4439791 19.9115367,23.5881172 19.7817799,23.6454992 C19.6793015,23.6905851 19.5606035,23.667359 19.4846663,23.5969978" id="Fill-337" fill="#2A2C28"></path>
                    <path d="M3.80772526,9.15443926 C3.73727641,9.07964751 3.71538938,8.96386413 3.76121534,8.86462122 C3.81935274,8.73805057 3.9636703,8.68411421 4.08404893,8.74524208 C4.16886115,8.78839117 6.1626322,9.80095643 6.94988108,10.3122731 C7.33153605,10.5603804 7.74465362,10.3849074 8.50249181,10.02677 C8.91424144,9.83187994 9.38002466,9.61181959 9.94771933,9.43634664 C10.4743758,9.27453756 10.8491911,9.32847392 11.0550659,9.58664929 C11.4203056,10.0469062 11.0420705,10.9041348 10.9620461,11.0709779 C10.9025407,11.1968294 10.7575392,11.24717 10.6371606,11.1846038 C10.5188338,11.1241951 10.469588,10.9695775 10.5290934,10.843726 C10.6686232,10.5481548 10.7999453,10.0605701 10.6836705,9.91314405 C10.6351087,9.84410551 10.4449651,9.81390115 10.0831453,9.92536963 C9.54828115,10.0900553 9.09822923,10.3029241 8.70152693,10.4906227 C7.92522156,10.8581091 7.31306887,11.1479271 6.69476046,10.7459214 C5.9293986,10.2482686 3.89458939,9.21484799 3.8740703,9.20406071 C3.84876343,9.19183514 3.82619244,9.1745755 3.80772526,9.15443926" id="Fill-338" fill="#2A2C28"></path>
                    <path d="M10.1711938,28.5754596 C10.151868,28.5530796 10.1356593,28.5256461 10.1244379,28.4938809 C10.0876565,28.3920879 9.25041291,25.9627736 11.8263552,23.5608928 C12.9971248,22.4686038 13.2527241,21.6622014 13.2614518,21.1777824 C13.2701796,20.6623201 13.0089696,20.3915941 12.9971248,20.3807651 C12.9073533,20.280416 12.8955084,20.1280875 12.9740585,20.021241 C13.0526085,19.9151164 13.1903828,19.9006777 13.2820245,19.9909197 C13.2988566,20.0082462 13.7090623,20.4125303 13.7028282,21.1698411 C13.6953473,22.037608 13.1573419,22.9754028 12.103774,23.9586795 C9.78280757,26.1230434 10.5240456,28.2758562 10.5315265,28.2967924 C10.5789059,28.4281847 10.5259158,28.5769035 10.4130781,28.6317706 C10.3276705,28.672921 10.2329117,28.6476532 10.1711938,28.5754596" id="Fill-339" fill="#2A2C28"></path>
                    <path d="M0.0736665707,17.2230795 C0.00314526349,17.16058 -0.0213213125,17.0639897 0.0204157877,16.9775004 C0.0765449914,16.8644961 0.225503263,16.8120975 0.355032194,16.8607083 C0.441384815,16.8922737 2.52752022,17.6214354 4.69497101,15.3013754 C5.68514773,14.2414078 6.62567169,13.704164 7.49063712,13.7029014 C8.24478334,13.7016388 8.64488382,14.1208279 8.66215434,14.1372419 C8.75138538,14.2325695 8.73555407,14.3733514 8.62761329,14.452265 C8.51967252,14.5305473 8.36063977,14.519815 8.26996952,14.4232248 C8.25629702,14.4112299 7.99004311,14.1448176 7.47840383,14.1498681 C6.99554875,14.1549185 6.18887135,14.4080734 5.08931464,15.5848331 C2.66928244,18.1750933 0.256446285,17.3089375 0.154981956,17.271059 C0.124038933,17.2596954 0.0959743311,17.2432814 0.0736665707,17.2230795" id="Fill-340" fill="#2A2C28"></path>
                    <path d="M18.7603872,14.5716921 C18.6786436,14.5163186 18.6602328,14.4290931 18.7243022,14.3595087 C18.799418,14.2776735 18.9592232,14.2521919 19.0822069,14.301685 C19.1661599,14.3359872 21.1751396,15.1185665 23.8645802,13.7391296 C23.9198125,13.7107078 23.9883004,13.698457 24.0567883,13.7043374 C24.3277944,13.7268788 26.7189811,13.9464126 27.3699848,14.6873394 C27.4428913,14.7701546 27.4009148,14.8764913 27.2764582,14.9250043 C27.1527381,14.9730274 26.9921964,14.9455856 26.9200263,14.8627704 C26.5017344,14.3825401 24.8293029,14.1291942 24.0958191,14.0581397 C21.1515739,15.5282324 18.903991,14.6368662 18.8089916,14.5976637 C18.7913173,14.5898232 18.7751158,14.5814927 18.7603872,14.5716921" id="Fill-341" fill="#2A2C28"></path>
                    <path d="M14.0366846,9.88916413 C14.0272396,9.87444299 14.0182916,9.85824973 14.0108349,9.84058435 C13.9715633,9.7448969 13.079749,7.48814521 14.5889732,4.56305349 C14.5203721,3.82920436 14.2728116,2.15541006 13.788627,1.72996893 C13.7051127,1.65857138 13.6782688,1.49663877 13.7274826,1.37298114 C13.7771935,1.24932352 13.8855634,1.20884036 13.9685806,1.28244609 C14.7167303,1.94489767 14.9260133,4.33634784 14.947389,4.60648087 C14.9528573,4.67567026 14.9399324,4.74412359 14.9111001,4.79859183 C13.4958296,7.46974378 14.2787769,9.48654079 14.3125803,9.57192344 C14.3622913,9.694845 14.3354474,9.85456944 14.251933,9.92817517 C14.1808464,9.9914761 14.0923609,9.97233861 14.0366846,9.88916413" id="Fill-342" fill="#2A2C28"></path>
                    <path d="M19.9852906,6.17292379 C19.9515388,6.13846361 19.9309713,6.09180982 19.9314987,6.03985446 C19.9341356,5.3214921 20.8928969,5.00498854 20.9340319,4.99173462 C21.032123,4.96045538 21.1370699,5.01453136 21.1681848,5.11367067 C21.1998271,5.21174966 21.1455078,5.31725085 21.0479441,5.34906025 C21.0405609,5.35171104 20.3064598,5.60247516 20.3048777,6.04144493 C20.3043503,6.14482549 20.2204983,6.22859025 20.1171335,6.22859025 C20.0654511,6.22806009 20.0190424,6.20685382 19.9852906,6.17292379" id="Fill-343" fill="#2A2C28"></path>
                    <path d="M21.2309934,8.66433485 C21.1972512,8.6303929 21.1766895,8.58319237 21.1772168,8.5317491 C21.177744,8.42780186 21.2615722,8.34400766 21.3643805,8.34453801 C21.80092,8.34612904 22.0566225,7.61054325 22.0587314,7.60311845 C22.0914192,7.50447465 22.1968635,7.45144034 22.2943995,7.48379127 C22.3924627,7.51667254 22.4457121,7.6222108 22.4135516,7.7208546 C22.4003711,7.76169102 22.0771842,8.72267259 21.3627988,8.72002087 C21.3111311,8.71949053 21.2647356,8.69827681 21.2309934,8.66433485" id="Fill-344" fill="#2A2C28"></path>
                    <path d="M21.2458072,9.70128171 C21.2191561,9.66434084 21.1991677,9.61816475 21.1871747,9.565524 C21.1498631,9.39190189 21.2204887,9.20996809 21.345749,9.15825086 C21.5049896,9.09175729 25.2867864,7.57164032 28.5468872,10.6127978 C28.6568232,10.7125381 28.6834743,10.9166365 28.6108499,11.0671705 C28.5382256,11.2167811 28.3916443,11.2564925 28.2837072,11.1558286 C25.2061667,8.28459919 21.5183152,9.76869881 21.4810036,9.78439868 C21.3950536,9.82041603 21.305106,9.78439868 21.2458072,9.70128171" id="Fill-345" fill="#2A2C28"></path>
                    <path d="M18.1684483,7.40469568 C18.1264295,7.34479854 18.108489,7.25561836 18.1269017,7.16910026 C18.1349277,7.13249646 18.9134546,3.45214996 17.4678213,0.366116194 C17.4168323,0.257635818 17.4380777,0.111886111 17.5150334,0.0400095427 C17.591989,-0.0318670254 17.6958556,-0.00524607427 17.7468446,0.106561921 C19.2812366,3.38160444 18.4814643,7.14980008 18.4465273,7.30819473 C18.4196165,7.43264768 18.3256644,7.50186215 18.23785,7.4639273 C18.210467,7.45194787 18.1873331,7.43131663 18.1684483,7.40469568" id="Fill-346" fill="#2A2C28"></path>
                    <path d="M15.7329879,12.4571805 C14.5122636,11.2208125 14.741621,9.00353707 16.2452696,7.50564431 C17.7481637,6.00850959 19.9564826,5.79701563 21.1772069,7.03414163 L15.7329879,12.4571805" id="Fill-347" fill="#B03A32"></path>
                    <path d="M21.6385003,7.4743083 C22.8592127,8.7114343 22.6298576,10.9279517 21.1269781,12.4258445 C19.6233442,13.9229792 17.415047,14.1344732 16.1943347,12.8973472 L21.6385003,7.4743083" id="Fill-348" fill="#D4483C"></path>
                    <path d="M17.4228374,18.5572139 C14.3442176,21.7600995 9.406888,23.6091958 7.4743083,21.5644866 L18.6230489,9.9657444 C19.8978339,11.3151048 20.3093953,13.2313738 19.5531073,15.2967516 C19.1661692,16.3633959 18.4703843,17.4669484 17.4228374,18.5572139" id="Fill-349" fill="#B03A32"></path>
                    <path d="M18.6857708,10.0618886 L7.06079955,21.1772069 C5.04713476,19.2184265 6.92728881,14.268067 10.1374153,11.1986744 C11.2297092,10.1538501 12.3330068,9.46343127 13.3959577,9.08355945 C15.4580385,8.34150071 17.3565319,8.76876809 18.6857708,10.0618886" id="Fill-350" fill="#D4483C"></path>
                    <path d="M18.7115953,9.9657444 C19.9001115,11.1670042 20.2838212,12.8729507 19.5787136,14.7116404 C17.9140038,15.2268415 16.1384446,14.9068123 14.9486166,13.7042382 L18.7115953,9.9657444" id="Fill-351" fill="#B03A32"></path>
                    <path d="M14.9198032,13.7028986 C13.7303429,12.5021594 13.4237878,10.7200997 13.952218,9.05758841 C15.7974568,8.36854283 17.4963105,8.76528595 18.6857708,9.96602505 L14.9198032,13.7028986" id="Fill-352" fill="#D4483C"></path>
                </g>
                <path d="M203.333002,164.908001 C185.71302,164.908001 171.377698,179.243323 171.377698,196.863305 C171.377698,214.483287 185.71302,228.818609 203.333002,228.818609 C220.952984,228.818609 235.287064,214.483287 235.287064,196.863305 C235.287064,179.243323 220.952984,164.908001 203.333002,164.908001 Z M203.333002,230.135701 C184.985578,230.135701 170.060606,215.209488 170.060606,196.863305 C170.060606,178.517122 184.985578,163.590909 203.333002,163.590909 C221.679185,163.590909 236.605398,178.517122 236.605398,196.863305 C236.605398,215.209488 221.679185,230.135701 203.333002,230.135701 Z" id="Fill-353" fill="#C3CF21"></path>
                <path d="M204.916742,178.484095 C204.55178,178.484095 204.257576,177.8361 204.257576,177.035418 L204.257576,162.266859 C204.257576,161.464935 204.55178,160.818182 204.916742,160.818182 C205.280463,160.818182 205.575909,161.464935 205.575909,162.266859 L205.575909,177.035418 C205.575909,177.8361 205.280463,178.484095 204.916742,178.484095" id="Fill-354" fill="#F8C324"></path>
                <path d="M204.916742,232.091397 C204.55178,232.091397 204.257576,231.442161 204.257576,230.641479 L204.257576,215.872919 C204.257576,215.072237 204.55178,214.424242 204.916742,214.424242 C205.280463,214.424242 205.575909,215.072237 205.575909,215.872919 L205.575909,230.641479 C205.575909,231.442161 205.280463,232.091397 204.916742,232.091397" id="Fill-355" fill="#F8C324"></path>
                <path d="M184.20467,197.257727 L169.640936,197.257727 C168.851426,197.257727 168.212121,196.963523 168.212121,196.598561 C168.212121,196.23484 168.851426,195.939394 169.640936,195.939394 L184.20467,195.939394 C184.992939,195.939394 185.633485,196.23484 185.633485,196.598561 C185.633485,196.963523 184.992939,197.257727 184.20467,197.257727" id="Fill-357" fill="#F8C324"></path>
                <g id="Group-2" transform="translate(161.742424, 176.530303)">
                    <polyline id="Fill-358" fill="#DFDFDA" points="25.652647 40.4791827 21.851761 36.677837 26.4025254 32.1261531 30.2043309 35.9279586 25.652647 40.4791827"></polyline>
                    <path d="M21.5542924,35.8668097 C21.0329177,35.3449752 20.1874079,35.3449752 19.6660332,35.8668097 L0.404134362,55.127789 C-0.116780578,55.6496235 -0.116780578,56.4946735 0.404134362,57.0160482 L2.85928509,59.4711989 L2.85974486,59.4716587 L24.005765,38.3182823 L21.5542924,35.8668097" id="Fill-359" fill="#464644"></path>
                    <path d="M24.0089834,38.3215006 L24.005765,38.3182823 L2.85974486,59.4716587 L5.31443582,61.9263496 C5.83581053,62.4472646 6.68086054,62.4472646 7.20269501,61.9263496 L26.4641341,42.6649105 C26.9859686,42.1435358 26.9859686,41.2980261 26.4641341,40.7757318 L24.0089834,38.3215006" id="Fill-360" fill="#2A2C28"></path>
                    <path d="M4.84225608,57.4877681 L1.44412518,54.0891775 L0.404134362,55.127789 C-0.116780578,55.6496235 -0.116780578,56.4946735 0.404134362,57.0160482 L2.85974486,59.4711989 L4.84225608,57.4877681" id="Fill-361" fill="#FDFCFD"></path>
                    <path d="M2.85974486,59.4711989 L5.31443582,61.9263496 C5.83581053,62.4472646 6.68086054,62.4472646 7.20269501,61.9263496 L8.24176629,60.8872783 L4.84225608,57.4877681 L2.85974486,59.4711989" id="Fill-362" fill="#DFDFDA"></path>
                    <path d="M29.8972072,32.346381 C23.8595594,26.3087332 23.8590996,16.5056014 29.8967475,10.4697926 C35.9339355,4.431685 45.7292513,4.43904126 51.7664394,10.4776086 C51.7783933,10.4895625 51.7889679,10.502436 51.800462,10.5143899 L55.972839,6.34017389 C52.2271249,2.60917236 47.0588947,0.303445596 41.3554968,0.30298583 C29.9339885,0.303905362 20.6733806,9.54842142 20.6738404,20.9690102 C20.6738404,26.6770058 22.9892223,31.8475348 26.7307984,35.5923293 L29.9385862,32.383622 C29.9252529,32.3707486 29.9110002,32.3597142 29.8972072,32.346381" id="Fill-363" fill="#464644"></path>
                    <path d="M55.972839,6.34017389 L51.800462,10.5143899 C51.8027609,10.5171485 51.8050597,10.5199071 51.8073585,10.5226657 C57.8013286,16.5626123 57.7967309,26.3225261 51.7742554,32.346381 C45.7513201,38.3688565 35.98405,38.3812702 29.9427241,32.3873002 C29.9413448,32.3859209 29.9399655,32.3850013 29.9385862,32.383622 L26.7307984,35.5923293 C26.7321777,35.5937086 26.733557,35.5950879 26.7349363,35.5964672 C30.479271,39.3412617 35.6520989,41.6589424 41.3628531,41.6594022 C52.7843614,41.6594022 62.0518658,32.3914381 62.0523255,20.9690102 C62.0523255,15.256417 59.7309667,10.0886465 55.9820343,6.34890945 C55.9792757,6.34615085 55.9760574,6.34339225 55.972839,6.34017389" id="Fill-364" fill="#2A2C28"></path>
                </g>
            </g>
        </g>
    </g>
</svg>